<svg width="92" height="92" viewBox="0 0 92 92" fill="none" xmlns="http://www.w3.org/2000/svg">
<g clip-path="url(#clip0_241_2)">
<path fill-rule="evenodd" clip-rule="evenodd" d="M14.445 69.0816L44.4546 23.2335V75.1426H46.12L63.5134 48.5695L77.1684 69.4314C70.0323 78.8985 58.6943 85.0232 45.9369 85.0232C33.0232 85.0232 21.5637 78.7473 14.445 69.0816ZM12.932 66.8735C9.08098 60.8193 6.84946 53.6361 6.84946 45.9358C6.84946 24.3628 24.364 6.84814 45.9369 6.84814C58.8508 6.84814 70.3101 13.1242 77.429 22.7899L46.9297 69.386V23.2335L60.7837 44.3993L62.2651 42.1429L45.6922 16.8231L12.932 66.8735ZM78.942 24.998C82.793 31.0522 85.0245 38.2355 85.0245 45.9358C85.0245 53.7965 82.6991 61.1184 78.6991 67.2504L64.9925 46.3097L78.942 24.998Z" fill="white"/>
</g>
<defs>
<clipPath id="clip0_241_2">
<rect width="92" height="92" fill="white"/>
</clipPath>
</defs>
</svg>
