<svg width="185" height="185" viewBox="0 0 185 185" fill="none" xmlns="http://www.w3.org/2000/svg">
<mask id="mask0_49_2" style="mask-type:luminance" maskUnits="userSpaceOnUse" x="39" y="39" width="107" height="107">
<path d="M146 39H39V146H146V39Z" fill="white"/>
</mask>
<g mask="url(#mask0_49_2)">
<path fill-rule="evenodd" clip-rule="evenodd" d="M55.8007 119.345L90.7032 66.0216V126.394H92.6401L112.869 95.4885L128.751 119.752C120.451 130.762 107.265 137.886 92.4272 137.886C77.408 137.886 64.0801 130.587 55.8007 119.345ZM54.0411 116.777C49.5622 109.736 46.9668 101.381 46.9668 92.4254C46.9668 67.335 67.337 46.9647 92.4272 46.9647C107.447 46.9647 120.774 54.2641 129.054 65.5057L93.5819 119.699V66.0216L109.695 90.6384L111.418 88.0141L92.1426 58.566L54.0411 116.777ZM130.814 68.0738C135.292 75.1151 137.888 83.4696 137.888 92.4254C137.888 101.568 135.183 110.083 130.531 117.215L114.59 92.8602L130.814 68.0738Z" fill="white"/>
</g>
</svg>
