<?xml version="1.0" encoding="UTF-8" standalone="no"?><!DOCTYPE svg PUBLIC "-//W3C//DTD SVG 1.1//EN" "http://www.w3.org/Graphics/SVG/1.1/DTD/svg11.dtd"><svg width="100%" height="100%" viewBox="0 0 1203 261" version="1.1" xmlns="http://www.w3.org/2000/svg" xmlns:xlink="http://www.w3.org/1999/xlink" xml:space="preserve" style="fill-rule:evenodd;clip-rule:evenodd;stroke-linejoin:round;stroke-miterlimit:1.41421;"><rect id="AK_Logo_2_black" x="0" y="0.166" width="1201.96" height="260.038" style="fill:none;"/><path d="M170.699,193.34l92.824,-141.814l7.967,0l-52.146,79.666l50.827,77.652l-7.967,0l-46.843,-71.566l-46.843,71.566l-4.485,0l0,-139.8l-91.506,139.8l-7.967,0l102.806,-157.064l44.633,68.19l-3.989,6.077l-37.311,-57.003l0,124.296Z" style="fill:#080605;"/><text x="349.42px" y="150.246px" style="font-family:'Vidaloka-Regular', 'Vidaloka ';font-size:57.777px;fill:#080605;">A<tspan x="413.206px 481.309px 544.503px 604.988px 666.094px 728.583px 792.341px 841.26px 905.046px 946.997px 1014.85px 1074.12px " y="150.246px 150.246px 150.246px 150.246px 150.246px 150.246px 150.246px 150.246px 150.246px 150.246px 150.246px 150.246px ">NASTACIA KAY</tspan></text></svg>