<svg width="304" height="304" viewBox="0 0 304 304" fill="none" xmlns="http://www.w3.org/2000/svg">
<g clip-path="url(#clip0_13_2)">
<mask id="mask0_13_2" style="mask-type:luminance" maskUnits="userSpaceOnUse" x="0" y="0" width="304" height="304">
<path d="M303.5 0H0V303.5H303.5V0Z" fill="white"/>
</mask>
<g mask="url(#mask0_13_2)">
<path fill-rule="evenodd" clip-rule="evenodd" d="M112.476 180.615L149.9 123.439V188.173H151.977L173.668 155.035L190.697 181.051C181.798 192.857 167.658 200.495 151.749 200.495C135.645 200.495 121.354 192.669 112.476 180.615ZM110.589 177.861C105.787 170.311 103.004 161.353 103.004 151.75C103.004 124.847 124.846 103.005 151.749 103.005C167.854 103.005 182.144 110.832 191.022 122.885L152.987 180.994V123.439L170.264 149.834L172.111 147.02L151.444 115.444L110.589 177.861ZM192.909 125.639C197.711 133.189 200.494 142.147 200.494 151.75C200.494 161.553 197.594 170.684 192.606 178.331L175.513 152.216L192.909 125.639Z" fill="white"/>
</g>
</g>
<defs>
<clipPath id="clip0_13_2">
<rect width="303.5" height="303.5" fill="white"/>
</clipPath>
</defs>
</svg>
