<svg width="223" height="48" viewBox="0 0 223 48" fill="none" xmlns="http://www.w3.org/2000/svg">
<g clip-path="url(#clip0_203_2)">
<path fill-rule="evenodd" clip-rule="evenodd" d="M32.2722 35.5568L49.3433 9.47607H50.8085L41.2184 24.1273L50.5659 38.4081H49.1007L40.4859 25.2466L31.8711 38.4081H31.0463V12.6978L14.2176 38.4081H12.7524L31.6593 9.52279L39.8676 22.0635L39.134 23.1811L32.2722 12.6978V35.5568Z" fill="#080605"/>
<path d="M65.1093 28.0059V27.7724L65.7371 27.7205L68.1912 20.3894H68.4247L70.9617 27.7205L71.6466 27.7724V28.0059H68.8709V27.7724L69.5713 27.7205L68.9591 25.8579H66.6347L66.0329 27.7205L66.7333 27.7724V28.0059H65.1093ZM66.7281 25.5466L68.8449 25.5051L67.8073 22.3195H67.7865L66.7281 25.5466ZM78.297 20.8356V20.6021H79.4073L83.8588 25.998H83.8692L83.7966 20.8875L83.0028 20.8356V20.6021H84.9224V20.8356L84.1234 20.8875L84.1805 28.1096H83.864L79.4125 22.6982H79.4021L79.4747 27.7205L80.2685 27.7724V28.0059H78.3489V27.7724L79.1479 27.7205L79.0908 20.8875L78.297 20.8356ZM91.495 28.0059V27.7724L92.1228 27.7205L94.5769 20.3894H94.8103L97.3474 27.7205L98.0323 27.7724V28.0059H95.2565V27.7724L95.9569 27.7205L95.3447 25.8579H93.0204L92.4185 27.7205L93.1189 27.7724V28.0059H91.495ZM93.1137 25.5466L95.2306 25.5051L94.1929 22.3195H94.1722L93.1137 25.5466ZM107.194 20.7059C106.945 20.7059 106.725 20.7353 106.535 20.7941C106.348 20.8529 106.191 20.9359 106.063 21.0431C105.935 21.1504 105.838 21.2801 105.772 21.4323C105.71 21.581 105.679 21.7453 105.679 21.9252C105.679 22.0531 105.696 22.1794 105.731 22.3039C105.765 22.4284 105.84 22.5564 105.954 22.6878C106.068 22.8158 106.232 22.949 106.447 23.0873C106.665 23.2257 106.957 23.3744 107.323 23.5335C107.745 23.7272 108.102 23.9088 108.392 24.0783C108.686 24.2478 108.925 24.4277 109.108 24.6179C109.292 24.8081 109.423 25.0226 109.503 25.2612C109.586 25.4964 109.627 25.7783 109.627 26.1069C109.627 26.356 109.577 26.605 109.477 26.8541C109.376 27.1031 109.224 27.3262 109.02 27.5233C108.819 27.7205 108.565 27.8813 108.257 28.0059C107.953 28.1269 107.595 28.1875 107.183 28.1875C106.727 28.1875 106.343 28.1442 106.032 28.0577C105.72 27.9747 105.47 27.8658 105.279 27.7309C105.093 27.596 104.958 27.4438 104.875 27.2743C104.792 27.1014 104.75 26.9284 104.75 26.7555C104.75 26.6413 104.767 26.5358 104.802 26.439C104.837 26.3387 104.887 26.2522 104.952 26.1796C105.022 26.1035 105.105 26.0447 105.201 26.0032C105.302 25.9582 105.414 25.9357 105.539 25.9357C105.653 25.9357 105.757 25.9565 105.85 25.998C105.943 26.036 106.021 26.0896 106.083 26.1588C106.149 26.2245 106.199 26.3041 106.234 26.3975C106.272 26.4874 106.291 26.586 106.291 26.6932C106.291 26.9388 106.22 27.1238 106.078 27.2484C105.936 27.3729 105.753 27.4351 105.528 27.4351V27.4559C105.553 27.4836 105.599 27.5216 105.668 27.57C105.741 27.6185 105.84 27.6669 105.964 27.7153C106.092 27.7637 106.248 27.807 106.431 27.845C106.618 27.8796 106.838 27.8969 107.09 27.8969C107.298 27.8969 107.503 27.8692 107.707 27.8139C107.915 27.7586 108.098 27.679 108.257 27.5752C108.42 27.4715 108.551 27.3452 108.652 27.1965C108.752 27.0478 108.802 26.88 108.802 26.6932C108.802 26.5341 108.773 26.3854 108.714 26.247C108.655 26.1087 108.544 25.9686 108.382 25.8268C108.219 25.6815 107.993 25.5276 107.702 25.365C107.415 25.199 107.04 25.0122 106.576 24.8047C106.234 24.6594 105.952 24.5003 105.731 24.3273C105.513 24.1509 105.34 23.9659 105.212 23.7722C105.087 23.575 105.001 23.371 104.952 23.16C104.904 22.9455 104.88 22.7259 104.88 22.5011C104.88 22.2174 104.932 21.9494 105.035 21.6969C105.139 21.4444 105.29 21.2247 105.487 21.038C105.684 20.8477 105.926 20.6973 106.213 20.5866C106.504 20.4759 106.834 20.4206 107.204 20.4206C107.56 20.4206 107.87 20.4621 108.133 20.5451C108.399 20.6281 108.619 20.7388 108.792 20.8771C108.965 21.012 109.094 21.1711 109.181 21.3544C109.267 21.5343 109.311 21.7228 109.311 21.92C109.311 22.0237 109.293 22.124 109.259 22.2209C109.224 22.3143 109.174 22.3973 109.108 22.4699C109.043 22.5391 108.961 22.5962 108.864 22.6411C108.768 22.6827 108.657 22.7034 108.532 22.7034C108.418 22.7034 108.314 22.6844 108.221 22.6463C108.128 22.6083 108.046 22.5564 107.977 22.4907C107.911 22.425 107.86 22.3471 107.822 22.2572C107.787 22.1673 107.77 22.0687 107.77 21.9615C107.77 21.8404 107.79 21.7332 107.832 21.6398C107.873 21.543 107.929 21.4634 107.998 21.4011C108.071 21.3354 108.155 21.287 108.252 21.2559C108.349 21.2213 108.453 21.204 108.563 21.204V21.1832C108.543 21.159 108.501 21.121 108.439 21.0691C108.377 21.0137 108.29 20.9601 108.18 20.9083C108.069 20.8529 107.932 20.8062 107.77 20.7682C107.607 20.7267 107.415 20.7059 107.194 20.7059ZM116.708 23.1444L116.76 20.6021H122.426L122.477 23.1392H122.192C122.144 22.8729 122.1 22.6584 122.062 22.4959C122.028 22.3333 121.985 22.1621 121.933 21.9822C121.881 21.8024 121.827 21.6623 121.772 21.562C121.717 21.4617 121.649 21.3614 121.57 21.2611C121.49 21.1608 121.398 21.0881 121.295 21.0431C121.194 20.9947 121.077 20.9567 120.942 20.929C120.807 20.8979 120.651 20.8823 120.475 20.8823C120.461 20.8823 120.432 20.884 120.387 20.8875C120.345 20.8875 120.307 20.8875 120.272 20.8875V27.7205L121.077 27.7724V28.0059H118.15V27.7724L118.944 27.7205L118.913 20.8927C118.879 20.8927 118.839 20.8927 118.794 20.8927C118.752 20.8892 118.725 20.8875 118.711 20.8875C118.555 20.8875 118.417 20.8961 118.296 20.9134C118.175 20.9307 118.064 20.9636 117.964 21.012C117.867 21.0604 117.782 21.1123 117.709 21.1677C117.637 21.223 117.569 21.3026 117.507 21.4063C117.445 21.5101 117.391 21.6104 117.346 21.7073C117.305 21.8041 117.26 21.9373 117.211 22.1068C117.166 22.2728 117.094 22.6187 116.993 23.1444H116.708ZM128.666 28.0059V27.7724L129.294 27.7205L131.748 20.3894H131.981L134.519 27.7205L135.203 27.7724V28.0059H132.428V27.7724L133.128 27.7205L132.516 25.8579H130.191L129.59 27.7205L130.29 27.7724V28.0059H128.666ZM130.285 25.5466L132.402 25.5051L131.364 22.3195H131.343L130.285 25.5466ZM141.766 24.4363C141.766 24.0524 141.807 23.6736 141.89 23.3001C141.973 22.9265 142.105 22.5651 142.284 22.2157C142.468 21.8664 142.691 21.5603 142.954 21.2974C143.217 21.031 143.542 20.8183 143.929 20.6592C144.316 20.5001 144.742 20.4206 145.205 20.4206C145.745 20.4206 146.221 20.5693 146.632 20.8667C147.044 21.1608 147.25 21.5101 147.25 21.9148C147.25 22.1189 147.184 22.2935 147.052 22.4388C146.924 22.5841 146.748 22.6567 146.523 22.6567C146.309 22.6567 146.134 22.591 145.999 22.4596C145.864 22.3247 145.797 22.1552 145.797 21.9511C145.797 21.7505 145.861 21.5827 145.989 21.4478C146.117 21.3095 146.276 21.2403 146.466 21.2403C146.504 21.2403 146.532 21.242 146.549 21.2455V21.2247C146.497 21.1279 146.357 21.0189 146.129 20.8979C145.901 20.7768 145.626 20.7163 145.304 20.7163C144.674 20.7163 144.157 21.0431 143.753 21.6969C143.348 22.3506 143.146 23.2136 143.146 24.2858C143.146 24.7459 143.185 25.1817 143.265 25.5933C143.345 26.0014 143.462 26.3733 143.618 26.7088C143.777 27.0443 143.99 27.3124 144.256 27.513C144.522 27.7101 144.827 27.8087 145.169 27.8087C145.66 27.8087 146.087 27.6634 146.451 27.3729C146.817 27.0789 147.101 26.7036 147.301 26.247L147.545 26.3612C147.051 27.5787 146.219 28.1875 145.05 28.1875C144.541 28.1875 144.092 28.1165 143.701 27.9747C143.31 27.8329 142.993 27.6461 142.751 27.4144C142.513 27.1792 142.317 26.8956 142.165 26.5635C142.013 26.2315 141.907 25.8942 141.849 25.5518C141.793 25.2094 141.766 24.8375 141.766 24.4363ZM154.424 28.0059V27.7724L155.223 27.7205V20.8875L154.424 20.8356V20.6021H157.35V20.8356L156.551 20.8875V27.7205L157.35 27.7724V28.0059H154.424ZM164.073 28.0059V27.7724L164.701 27.7205L167.155 20.3894H167.389L169.926 27.7205L170.61 27.7724V28.0059H167.835V27.7724L168.535 27.7205L167.923 25.8579H165.599L164.997 27.7205L165.697 27.7724V28.0059H164.073ZM165.692 25.5466L167.809 25.5051L166.771 22.3195H166.75L165.692 25.5466ZM186.064 28.0059V27.7724L186.863 27.7205V20.8875L186.064 20.8356V20.6021H188.991V20.8356L188.192 20.8875V24.042H188.202L191.144 20.8875L190.474 20.8356V20.6021H192.155V20.8356L191.548 20.8875L189.136 23.435L192.43 27.7205L192.991 27.7724V28.0059H190.028V27.7724L190.698 27.7205L188.202 24.3118H188.192V27.7205L188.991 27.7724V28.0059H186.064ZM199.2 28.0059V27.7724L199.828 27.7205L202.282 20.3894H202.515L205.053 27.7205L205.737 27.7724V28.0059H202.962V27.7724L203.662 27.7205L203.05 25.8579H200.725L200.124 27.7205L200.824 27.7724V28.0059H199.2ZM200.819 25.5466L202.936 25.5051L201.898 22.3195H201.877L200.819 25.5466ZM211.008 20.8356V20.6021H214.053V20.8356L213.249 20.8875L214.997 24.0368H215.023L216.487 20.8875L215.755 20.8356V20.6021H217.483V20.8356L216.839 20.8875L215.221 24.3585V27.7205L216.02 27.7724V28.0059H213.099V27.7724L213.892 27.7205V24.6646L211.708 20.8875L211.008 20.8356Z" fill="#080605"/>
</g>
<defs>
<clipPath id="clip0_203_2">
<rect width="221.241" height="48" fill="white" transform="translate(0.879311)"/>
</clipPath>
</defs>
</svg>
